<?xml version="1.0" standalone="no"?>
<!DOCTYPE svg PUBLIC "-//W3C//DTD SVG 20010904//EN"
 "http://www.w3.org/TR/2001/REC-SVG-20010904/DTD/svg10.dtd">
<svg version="1.0" xmlns="http://www.w3.org/2000/svg"
 width="225.000000pt" height="225.000000pt" viewBox="0 0 225.000000 225.000000"
 preserveAspectRatio="xMidYMid meet">

<g transform="translate(0.000000,225.000000) scale(0.100000,-0.100000)"
fill="#000000" stroke="none">
<path d="M426 1959 c-52 -12 -99 -49 -122 -96 -16 -33 -19 -70 -24 -285 l-5
-246 -31 -39 c-40 -51 -88 -73 -173 -80 l-71 -6 0 -82 0 -82 71 -6 c85 -7 133
-29 173 -80 l31 -39 5 -246 c6 -282 9 -293 88 -343 62 -39 101 -49 200 -49
l82 0 0 95 0 95 -89 0 -90 0 -3 257 c-3 220 -6 263 -20 289 -24 44 -81 91
-120 99 l-33 8 40 14 c45 15 89 54 113 98 14 25 18 70 20 288 l3 257 90 0 89
0 0 95 0 95 -92 -1 c-51 -1 -111 -5 -132 -10z"/>
<path d="M1600 1875 l0 -95 89 0 90 0 3 -257 c2 -218 6 -263 20 -288 24 -44
68 -83 113 -98 l40 -14 -33 -8 c-39 -8 -96 -55 -120 -99 -14 -26 -17 -69 -20
-288 l-3 -258 -90 0 -89 0 0 -95 0 -95 88 0 c151 1 219 29 258 107 16 33 19
70 24 285 l5 246 31 39 c40 51 88 73 173 80 l71 6 0 82 0 82 -71 6 c-85 7
-133 29 -173 80 l-31 39 -5 246 c-5 215 -8 252 -24 285 -39 78 -107 106 -258
107 l-88 0 0 -95z"/>
<path d="M689 811 c-20 -20 -29 -39 -29 -61 0 -43 47 -90 90 -90 43 0 90 47
90 90 0 22 -9 41 -29 61 -40 39 -82 39 -122 0z"/>
<path d="M1065 815 c-35 -34 -35 -96 0 -130 56 -56 145 -16 145 65 0 54 -34
90 -85 90 -25 0 -44 -8 -60 -25z"/>
<path d="M1439 811 c-20 -20 -29 -39 -29 -61 0 -43 47 -90 90 -90 43 0 90 47
90 90 0 22 -9 41 -29 61 -40 39 -82 39 -122 0z"/>
</g>
</svg>
